<svg width="24" height="24" viewBox="0 0 24 24" fill="none" xmlns="http://www.w3.org/2000/svg">
<path d="M9.83337 0.204407C6.30559 0.915508 3.5279 2.78215 1.69955 5.64879C0.961178 6.80433 0.398608 8.24875 0.152483 9.57096C-0.117081 11.0709 -0.0233197 13.2487 0.386888 14.6598C0.703333 15.7264 1.69955 17.782 1.93395 17.8486C2.00428 17.8709 2.28556 17.282 2.55513 16.5042L3.04737 15.1265L2.82469 14.4265C2.43792 13.2376 2.29728 12.1376 2.37932 11.0821C2.70749 6.90433 5.6141 3.58214 9.83337 2.53771C11.1109 2.2266 12.9861 2.20438 14.3457 2.48216C16.1623 2.87104 18.0492 3.88214 19.2916 5.13768C20.2058 6.05989 20.6511 6.69322 21.1551 7.71543L21.5536 8.53764V10.7376L21.5419 12.9376L21.284 12.6487C20.4636 11.7487 19.5611 10.6487 15.9865 6.21545C15.1778 5.20435 14.2753 4.11547 13.9823 3.79325L13.4549 3.21548H12.0719C11.3101 3.21548 10.6655 3.24881 10.6186 3.28215C10.5835 3.31548 10.853 3.70436 11.2281 4.13769C11.6031 4.58213 12.2595 5.38212 12.6931 5.93767L13.4901 6.92655L13.4666 10.7709C13.4432 12.882 13.4432 15.2153 13.4549 15.9598L13.4666 17.3264H14.7559H16.0451L16.0685 13.7487L16.1037 10.171L17.2991 11.6043C17.9555 12.4043 19.3971 14.1598 20.5222 15.5264C23.6749 19.3708 23.7687 19.4931 23.9093 19.5375C23.9914 19.5597 24.0148 17.8264 23.9914 13.8709L23.9562 8.15987L23.6749 7.60432C23.5226 7.29321 23.2179 6.671 22.9952 6.21545C21.7294 3.64881 18.9751 1.44884 15.8693 0.515512C14.0175 -0.0400352 11.65 -0.151146 9.83337 0.204407Z" fill="#333333"/>
<path d="M8.46184 3.53771C8.11024 3.74882 8.01648 3.99326 6.21157 9.18209C5.18019 12.1598 3.6214 16.6487 2.74238 19.1597C1.87509 21.6597 1.16016 23.7708 1.16016 23.8486C1.16016 24.0486 3.42216 24.0486 3.59796 23.8597C3.68 23.7597 8.71969 9.38209 9.51666 6.93767C9.5401 6.88212 10.1261 7.55989 10.8293 8.43766C11.5325 9.32653 12.2592 10.1932 12.435 10.3821L12.7632 10.7154V8.87098V7.02656L11.9779 6.03768C9.78623 3.24883 9.41118 2.99327 8.46184 3.53771Z" fill="#333333"/>
<path d="M10.8526 13.9042C9.44621 14.182 7.5827 15.7375 6.75056 17.3153C6.38724 18.0153 5.46134 21.1819 5.57854 21.3597C5.6723 21.5041 7.65302 22.4152 8.40311 22.6486C9.63373 23.0486 11.2746 23.2374 12.763 23.1819C15.9861 23.0486 18.9747 21.7375 21.225 19.4597C22.3736 18.2931 22.3619 18.3931 21.4946 17.3931C21.0961 16.9153 20.7328 16.5153 20.6976 16.5153C20.6625 16.5042 20.4046 16.7931 20.1116 17.1597C18.2364 19.5486 15.3766 20.9041 12.2356 20.9041C10.9581 20.9041 9.24697 20.6153 8.63752 20.3153C8.07495 20.0264 8.77816 18.1153 9.83298 17.1153C10.5362 16.4486 11.0284 16.2264 12.0012 16.1375L12.763 16.0709V14.9375V13.8042L12.0129 13.8153C11.591 13.8153 11.0753 13.8598 10.8526 13.9042Z" fill="#333333"/>
<path d="M10.3605 18.0486C9.73935 18.6375 10.1261 19.7041 11.0169 19.8375C11.8373 19.9708 12.517 19.0597 12.1303 18.3375C11.8959 17.9264 11.6146 17.7708 11.0637 17.7708C10.7707 17.7708 10.5598 17.8597 10.3605 18.0486Z" fill="#333333"/>
</svg>
